<svg xmlns="http://www.w3.org/2000/svg" viewBox="0 0 750 500"><g id="freepik--Shadow--inject-18"><ellipse cx="375" cy="444.69" rx="317.16" ry="22.55" style="fill:#ebebeb"></ellipse></g><g id="freepik--Floor--inject-18"><polygon points="31.22 393.56 117.17 393.07 203.11 392.79 375 392.56 546.89 392.79 632.83 393.07 718.78 393.56 632.83 394.05 546.89 394.33 375 394.56 203.11 394.32 117.17 394.05 31.22 393.56" style="fill:#37474f"></polygon></g><g id="freepik--Device--inject-18"><rect x="158.02" y="78.66" width="424.38" height="288.57" style="fill:#263238"></rect><rect x="158.02" y="324.66" width="424.38" height="42.57" style="fill:#dbdbdb"></rect><rect x="287.51" y="419.24" width="165.39" height="13.82" style="fill:#c7c7c7"></rect><polygon points="433.21 419.25 307.2 419.25 310.41 395.27 310.57 394.14 310.86 391.88 311.01 390.75 311.32 388.5 311.36 388.15 311.46 387.37 311.77 385.12 311.92 383.99 314.16 367.23 426.25 367.23 428.37 383.04 428.47 383.8 428.82 386.42 428.92 387.18 429.06 388.15 429.28 389.8 429.37 390.56 429.72 393.19 429.83 393.95 433.21 419.25" style="fill:#dbdbdb"></polygon><path d="M377.11,343.08a7,7,0,1,1-7-7A7,7,0,0,1,377.11,343.08Z" style="fill:#37474f"></path><polygon points="429.06 388.15 311.92 383.99 314.16 367.23 426.25 367.23 429.06 388.15" style="fill:#c7c7c7"></polygon><rect x="177.6" y="97.42" width="385.21" height="207.22" style="fill:#fff"></rect><rect x="177.6" y="97.42" width="385.21" height="207.22" transform="translate(740.41 402.06) rotate(180)" style="fill:#37474f"></rect><g style="opacity:0.05"><polygon points="284.18 97.42 491.41 304.64 534.79 304.64 327.56 97.42 284.18 97.42" style="fill:#fff"></polygon><polygon points="177.6 205.07 177.6 248.45 233.79 304.64 277.17 304.64 177.6 205.07" style="fill:#fff"></polygon><polygon points="475.77 97.42 562.81 184.47 562.81 141.09 519.14 97.42 475.77 97.42" style="fill:#fff"></polygon><polygon points="177.6 147.31 177.6 165.41 316.83 304.64 334.93 304.64 177.6 147.31" style="fill:#fff"></polygon><polygon points="398.36 97.42 562.81 261.87 562.81 243.77 416.46 97.42 398.36 97.42" style="fill:#fff"></polygon><polygon points="243.21 97.42 450.44 304.64 455.25 304.64 248.04 97.42 243.21 97.42" style="fill:#fff"></polygon><polygon points="533.48 97.42 562.81 126.75 562.81 121.93 538.3 97.42 533.48 97.42" style="fill:#fff"></polygon></g></g><g id="freepik--Notes--inject-18"><rect x="510.25" y="126.34" width="68.74" height="68.74" transform="translate(18.09 -51.89) rotate(5.55)" style="fill:#dbdbdb"></rect><path d="M522.35,139.14c8.11.12,16.17.75,24.22,1.5s16.07,1.74,24,3.19c-8.1-.12-16.17-.75-24.21-1.5S530.33,140.58,522.35,139.14Z" style="fill:#fff"></path><path d="M521.48,148.16a86.43,86.43,0,0,1,24.13,2.34,76.93,76.93,0,0,1-12.15-.32A79.3,79.3,0,0,1,521.48,148.16Z" style="fill:#fff"></path><path d="M520.6,157.18c6.39-.05,12.74.42,19.07,1a189.52,189.52,0,0,1,18.91,2.69,189.23,189.23,0,0,1-19.07-1C533.18,159.22,526.87,158.45,520.6,157.18Z" style="fill:#fff"></path><path d="M519.72,166.2c8.11.12,16.17.75,24.22,1.5S560,169.44,568,170.89c-8.11-.12-16.17-.75-24.22-1.5S527.71,167.64,519.72,166.2Z" style="fill:#fff"></path><path d="M518.85,175.22a184.13,184.13,0,0,1,18.65,1A181.07,181.07,0,0,1,556,178.83a184,184,0,0,1-18.65-1C531.15,177.23,525,176.48,518.85,175.22Z" style="fill:#fff"></path><path d="M566.79,379.39H498.05s-3.41-7-3.41-13.68v-55h68.74v55.77C563.38,372,566.79,379.39,566.79,379.39Z" style="fill:#455a64"></path><path d="M506.47,326.9c8.08-.66,16.16-.82,24.25-.85s16.16.18,24.25.85c-8.09.67-16.17.82-24.25.85S514.55,327.56,506.47,326.9Z" style="fill:#fff"></path><path d="M506.47,336c7.27-.66,14.54-.81,21.81-.85s14.54.19,21.81.85c-7.27.67-14.54.82-21.81.86S513.74,336.63,506.47,336Z" style="fill:#fff"></path><path d="M506.47,345a214.46,214.46,0,0,1,38.15,0c-6.36.66-12.72.82-19.08.85S512.82,345.69,506.47,345Z" style="fill:#fff"></path><path d="M506.47,354.09c8.08-.66,16.16-.82,24.25-.85s16.16.18,24.25.85c-8.09.67-16.17.82-24.25.85S514.55,354.75,506.47,354.09Z" style="fill:#fff"></path><path d="M224.16,386.58H169.51a95.52,95.52,0,0,1-1.18-13.68v-55h68.74v55.76C237.07,379.19,224.16,386.58,224.16,386.58Z" style="fill:#322020"></path><path d="M237.06,373.6c0,5.42-12.12,12.51-12.87,12.95,2-1.36,1.67-12.13,1.67-12.13S236.86,373,237.06,373.6Z" style="opacity:0.2"></path><path d="M178.45,334.09c8.08-.66,16.17-.82,24.25-.85s16.17.18,24.25.85c-8.08.67-16.17.82-24.25.85S186.53,334.75,178.45,334.09Z" style="fill:#fff"></path><path d="M178.45,343.15c6.36-.66,12.72-.82,19.08-.85a190.29,190.29,0,0,1,19.08.85,190.29,190.29,0,0,1-19.08.85C191.17,344,184.81,343.81,178.45,343.15Z" style="fill:#fff"></path><path d="M178.45,352.21c6.36-.66,12.72-.81,19.08-.85s12.72.19,19.08.85a190.29,190.29,0,0,1-19.08.85A190.29,190.29,0,0,1,178.45,352.21Z" style="fill:#fff"></path><polygon points="158.79 446.14 158.76 437.07 145.94 389.26 87.11 389.38 71.14 437 71.48 446.18 158.79 446.14" style="fill:#322020"></polygon><g style="opacity:0.2"><polygon points="158.79 446.14 158.76 437.07 145.94 389.26 87.11 389.38 71.14 437 71.48 446.18 158.79 446.14"></polygon></g><polygon points="158.77 436.95 145.94 389.26 87.11 389.38 71.14 437 158.77 436.95" style="fill:#322020"></polygon><g style="opacity:0.1"><polygon points="158.77 436.95 145.94 389.26 87.11 389.38 71.14 437 158.77 436.95"></polygon></g><path d="M98.58,396.37c-1.78,5.6-3.11,11.2-4.32,16.8A124.93,124.93,0,0,0,91.76,430a131.74,131.74,0,0,0,4.31-16.81C97.13,407.57,98.08,402,98.58,396.37Z" style="fill:#fff"></path><path d="M106.9,396.35a43.67,43.67,0,0,0-1.88,8.41,34.25,34.25,0,0,0-.2,8.4,36.76,36.76,0,0,0,1.88-8.41A42.14,42.14,0,0,0,106.9,396.35Z" style="fill:#fff"></path><path d="M115.21,396.34a104.39,104.39,0,0,0-1.46,13.22,79,79,0,0,0,.31,13.23,80.4,80.4,0,0,0,1.45-13.23A102.35,102.35,0,0,0,115.21,396.34Z" style="fill:#fff"></path><path d="M123.53,396.32a165.63,165.63,0,0,0-.3,16.82A119.34,119.34,0,0,0,124.75,430a121,121,0,0,0,.29-16.81C124.76,407.53,124.37,401.93,123.53,396.32Z" style="fill:#fff"></path><path d="M131.84,396.31a98.45,98.45,0,0,0,.62,12.94,79.3,79.3,0,0,0,2.38,12.93,75.88,75.88,0,0,0-.63-12.94A102.84,102.84,0,0,0,131.84,396.31Z" style="fill:#fff"></path><path d="M143.82,381.7l12,47.69s-8.26,7.67-18.59,7.67H71.08l16-47.62s30.43-.19,42.37-.19C134.91,389.26,143.82,381.7,143.82,381.7Z" style="fill:#322020"></path><path d="M93.39,428.88a125.87,125.87,0,0,1,2.36-16.81c1.15-5.6,2.43-11.2,4.15-16.81-.45,5.61-1.34,11.21-2.36,16.81A134.24,134.24,0,0,1,93.39,428.88Z" style="fill:#fff"></path><path d="M104.3,428.87a98.26,98.26,0,0,1,.81-15.12,135,135,0,0,1,2.63-15.11,129.77,129.77,0,0,1-.81,15.11A103.63,103.63,0,0,1,104.3,428.87Z" style="fill:#fff"></path><path d="M115.2,428.87a77.06,77.06,0,0,1-.47-13.23,99,99,0,0,1,1.38-13.22,95.8,95.8,0,0,1,.47,13.22A76.17,76.17,0,0,1,115.2,428.87Z" style="fill:#fff"></path><path d="M126.11,428.87a124.41,124.41,0,0,1-1.66-16.82,165.37,165.37,0,0,1,.14-16.81c.89,5.6,1.33,11.21,1.66,16.81A124.24,124.24,0,0,1,126.11,428.87Z" style="fill:#fff"></path></g></svg>